<?xml version="1.0" encoding="utf-8"?>
<!-- Generator: Adobe Illustrator 19.2.1, SVG Export Plug-In . SVG Version: 6.00 Build 0)  -->
<svg version="1.1" id="Layer_1" xmlns="http://www.w3.org/2000/svg" xmlns:xlink="http://www.w3.org/1999/xlink" x="0px" y="0px"
	 viewBox="0 0 585 585" style="enable-background:new 0 0 585 585;" xml:space="preserve">
<style type="text/css">
	.st0{enable-background:new    ;}
</style>
<g id="H_x2F_s_1_" class="st0">
	<g id="H_x2F_s">
		<g>
			<path d="M109.6,36.5H36.5v73.1h73.1V36.5z M255.9,36.5h-73.1v73.1h73.1V36.5z M402.2,36.5h-73.1v73.1h73.1V36.5z M475.4,36.5
				v73.1h73.1V36.5H475.4z M109.6,182.8l-73.1,73.1v219.4l73.1,73.2V255.9h365.7v292.6l73.1-73.1V255.9l-73.1-73.1L109.6,182.8
				L109.6,182.8z M255.9,329.1l-73.1,73.1v146.3h73.1V402.2H329v146.3h73.1V402.2L329,329.1H255.9z"/>
		</g>
	</g>
</g>
<g>
	<circle cx="0" cy="0" r="0"/>
	<circle cx="585" cy="585" r="0"/>
</g>
</svg>
