<?xml version="1.0" encoding="utf-8"?>
<!-- Generator: Adobe Illustrator 19.2.1, SVG Export Plug-In . SVG Version: 6.00 Build 0)  -->
<svg version="1.1" id="Layer_1" xmlns="http://www.w3.org/2000/svg" xmlns:xlink="http://www.w3.org/1999/xlink" x="0px" y="0px"
	 viewBox="0 0 512 512" style="enable-background:new 0 0 512 512;" xml:space="preserve">
<style type="text/css">
	.st0{enable-background:new    ;}
</style>
<g id="B_x2F_s_1_" class="st0">
	<g id="B_x2F_s">
		<g>
			<path d="M73.1,0H0v73.1h73.1V0z M219.4,146.3V0h-73.1c0,0,0,1.5,0,4.3c0,24.2,0,142,0,142H0v73.1h146.3L219.4,146.3z M365.7,0
				h-73.1v146.3l73.1,73.1H512v-73.1H365.7V0z M438.9,0v73.1H512V0H438.9z M73.1,292.6L0,365.7v73.1L73.1,512V365.7h365.7V512
				l73.1-73.1v-73.1l-73.1-73.1L73.1,292.6L73.1,292.6z M146.3,512h219.4v-73.1H146.3V512z"/>
		</g>
	</g>
</g>
</svg>
