<?xml version="1.0" encoding="utf-8"?>
<!-- Generator: Adobe Illustrator 19.2.1, SVG Export Plug-In . SVG Version: 6.00 Build 0)  -->
<svg version="1.1" id="Layer_1" xmlns="http://www.w3.org/2000/svg" xmlns:xlink="http://www.w3.org/1999/xlink" x="0px" y="0px"
	 viewBox="0 0 585 585" style="enable-background:new 0 0 585 585;" xml:space="preserve">
<style type="text/css">
	.st0{enable-background:new    ;}
</style>
<g id="B_x2F_s_1_" class="st0">
	<g id="B_x2F_s">
		<g>
			<path d="M109.6,36.5H36.5v73.1h73.1V36.5z M255.9,182.8V36.5h-73.1c0,0,0,1.5,0,4.3c0,24.2,0,142,0,142H36.5v73.1h146.3
				L255.9,182.8z M402.2,36.5h-73.1v146.3l73.1,73.1h146.3v-73.1H402.2V36.5z M475.4,36.5v73.1h73.1V36.5H475.4z M109.6,329.1
				l-73.1,73.1v73.1l73.1,73.2V402.2h365.7v146.3l73.1-73.1v-73.1l-73.1-73.1L109.6,329.1L109.6,329.1z M182.8,548.5h219.4v-73.1
				H182.8V548.5z"/>
		</g>
	</g>
</g>
<g>
	<circle cx="0" cy="0" r="0"/>
	<circle cx="585" cy="585" r="0"/>
</g>
</svg>
