<?xml version="1.0" encoding="utf-8"?>
<!-- Generator: Adobe Illustrator 19.2.1, SVG Export Plug-In . SVG Version: 6.00 Build 0)  -->
<svg version="1.1" id="Layer_1" xmlns="http://www.w3.org/2000/svg" xmlns:xlink="http://www.w3.org/1999/xlink" x="0px" y="0px"
	 viewBox="0 0 585 585" style="enable-background:new 0 0 585 585;" xml:space="preserve">
<style type="text/css">
	.st0{enable-background:new    ;}
</style>
<g id="E_x2F_s_1_" class="st0">
	<g id="E_x2F_s">
		<g>
			<path d="M109.6,36.5H36.5v73.1h73.1V36.5z M475.4,36.5v73.1h73.1V36.5H475.4z M329.1,255.9h73.1V109.6l-73.1-73.1H256l-73.1,73.1
				v146.3H256V109.6h73.1V255.9z M109.6,329.1V182.8H36.5v146.3l73.1,73.1h73.1v73.1H36.5l73.1,73.2h73.1l73.1-73.1v-73.1
				l-73.1-73.1L109.6,329.1L109.6,329.1z M475.4,329.1h-73.1l-73.1,73.1v73.1l73.1,73.1h73.1l73.1-73.1H402.2v-73.1h73.1l73.1-73.1
				V182.8h-73.1L475.4,329.1L475.4,329.1z"/>
		</g>
	</g>
</g>
<g>
	<circle cx="0" cy="0" r="0"/>
	<circle cx="585" cy="585" r="0"/>
</g>
</svg>
