<?xml version="1.0" encoding="utf-8"?>
<!-- Generator: Adobe Illustrator 19.2.1, SVG Export Plug-In . SVG Version: 6.00 Build 0)  -->
<svg version="1.1" id="Layer_1" xmlns="http://www.w3.org/2000/svg" xmlns:xlink="http://www.w3.org/1999/xlink" x="0px" y="0px"
	 viewBox="0 0 512 512" style="enable-background:new 0 0 512 512;" xml:space="preserve">
<style type="text/css">
	.st0{enable-background:new    ;}
</style>
<g id="R_x2F_s_1_" class="st0">
	<g id="R_x2F_s">
		<g>
			<path d="M438.9,0h-73.1l-73.1,73.1v73.1h-73.1V73.1L146.3,0H73.1L0,73.1v146.3h73.1V73.1h73.1v73.1l73.1,73.1h73.1l73.1-73.1
				V73.1h73.1v146.3H512V73.1L438.9,0z M292.6,365.7v73.1h-73.1v-73.1l-73.1-73.1H0v73.1h146.3v73.1l73.1,73.1h73.1l73.1-73.1v-73.1
				H512v-73.1H365.7L292.6,365.7z M0,512h73.1v-73.1H0V512z M438.9,444.6c0,17.3,0,67.4,0,67.4H512v-73.1h-73.1
				C438.9,438.9,438.9,441,438.9,444.6z"/>
		</g>
	</g>
</g>
</svg>
