<?xml version="1.0" encoding="utf-8"?>
<!-- Generator: Adobe Illustrator 19.2.1, SVG Export Plug-In . SVG Version: 6.00 Build 0)  -->
<svg version="1.1" id="Layer_1" xmlns="http://www.w3.org/2000/svg" xmlns:xlink="http://www.w3.org/1999/xlink" x="0px" y="0px"
	 viewBox="0 0 512 512" style="enable-background:new 0 0 512 512;" xml:space="preserve">
<style type="text/css">
	.st0{enable-background:new    ;}
</style>
<g id="E_x2F_s_1_" class="st0">
	<g id="E_x2F_s">
		<g>
			<path d="M73.1,0H0v73.1h73.1V0z M438.9,0v73.1H512V0H438.9z M292.6,219.4h73.1V73.1L292.6,0h-73.1l-73.1,73.1v146.3h73.1V73.1
				h73.1V219.4z M73.1,292.6V146.3H0v146.3l73.1,73.1h73.1v73.1H0L73.1,512h73.1l73.1-73.1v-73.1l-73.1-73.1L73.1,292.6L73.1,292.6z
				 M438.9,292.6h-73.1l-73.1,73.1v73.1l73.1,73.1h73.1l73.1-73.1H365.7v-73.1h73.1l73.1-73.1V146.3h-73.1L438.9,292.6L438.9,292.6z
				"/>
		</g>
	</g>
</g>
</svg>
